HIERARCHY
ROOT joint_0
{
	OFFSET 0.000000 0.000000 0.000000
	CHANNELS 6 Xposition Yposition Zposition Zrotation Yrotation Xrotation 
	JOINT joint_1
	{
		OFFSET 14.113007 -2.961990 123.953979
		CHANNELS 3 Zrotation Yrotation Xrotation
		JOINT joint_2
		{
			OFFSET 0.764000 -2.434006 113.871948
			CHANNELS 3 Zrotation Yrotation Xrotation
			JOINT joint_3
			{
				OFFSET 0.186996 -2.169998 113.753052
				CHANNELS 3 Zrotation Yrotation Xrotation
				JOINT joint_4
				{
					OFFSET 16.096001 -2.720001 160.853027
					CHANNELS 3 Zrotation Yrotation Xrotation
					JOINT joint_5
					{
						OFFSET 34.392006 -0.188995 92.567017
						CHANNELS 3 Zrotation Yrotation Xrotation
						End Site
						{
							OFFSET 0.000000 0.000000 0.000000
						}
					}
				}
				JOINT joint_6
				{
					OFFSET 9.183998 -36.684006 89.597046
					CHANNELS 3 Zrotation Yrotation Xrotation
					JOINT joint_7
					{
						OFFSET 0.486000 -164.365997 -28.984009
						CHANNELS 3 Zrotation Yrotation Xrotation
						JOINT joint_8
						{
							OFFSET 38.899002 -34.967010 -291.651978
							CHANNELS 3 Zrotation Yrotation Xrotation
							JOINT joint_9
							{
								OFFSET 41.714005 -45.890991 -258.857056
								CHANNELS 3 Zrotation Yrotation Xrotation
								End Site
								{
									OFFSET 0.000000 0.000000 0.000000
								}
							}
						}
					}
				}
				JOINT joint_10
				{
					OFFSET 8.867004 33.650002 90.817993
					CHANNELS 3 Zrotation Yrotation Xrotation
					JOINT joint_11
					{
						OFFSET 0.018997 164.299999 -29.368042
						CHANNELS 3 Zrotation Yrotation Xrotation
						JOINT joint_12
						{
							OFFSET 29.440994 30.887997 -293.216919
							CHANNELS 3 Zrotation Yrotation Xrotation
							JOINT joint_13
							{
								OFFSET 46.174011 54.490005 -256.422058
								CHANNELS 3 Zrotation Yrotation Xrotation
								End Site
								{
									OFFSET 0.000000 0.000000 0.000000
								}
							}
						}
					}
				}
			}
		}
	}
	JOINT joint_14
	{
		OFFSET -2.264000 -89.466995 -116.150024
		CHANNELS 3 Zrotation Yrotation Xrotation
		JOINT joint_15
		{
			OFFSET -16.400993 -17.452988 -493.781982
			CHANNELS 3 Zrotation Yrotation Xrotation
			JOINT joint_16
			{
				OFFSET -50.497004 -13.404022 -424.754013
				CHANNELS 3 Zrotation Yrotation Xrotation
				JOINT joint_17
				{
					OFFSET 198.546007 -19.341003 -89.309000
					CHANNELS 3 Zrotation Yrotation Xrotation
					End Site
					{
						OFFSET 0.000000 0.000000 0.000000
					}
				}
			}
		}
	}
	JOINT joint_18
	{
		OFFSET -0.867996 96.016006 -110.817993
		CHANNELS 3 Zrotation Yrotation Xrotation
		JOINT joint_19
		{
			OFFSET -10.130997 24.658998 -493.645020
			CHANNELS 3 Zrotation Yrotation Xrotation
			JOINT joint_20
			{
				OFFSET -48.871004 19.434999 -424.714005
				CHANNELS 3 Zrotation Yrotation Xrotation
				JOINT joint_21
				{
					OFFSET 195.579996 24.926001 -94.327003
					CHANNELS 3 Zrotation Yrotation Xrotation
					End Site
					{
						OFFSET 0.000000 0.000000 0.000000
					}
				}
			}
		}
	}
}
MOTION
Frames: 10
Frame Time: 0.016667
-2563.390381 864.240112 1152.156006 5.545144 3.281879 -1.001291 -0.276850 -1.346855 0.678321 -0.228417 0.105354 -0.182076 -0.236484 -0.290616 0.061824 -0.833658 -2.261584 2.196195 0.000000 0.000000 0.000000 -1.304937 5.353704 -5.784278 -5.544516 6.499172 -8.971175 7.073751 -80.880527 26.475590 0.000000 0.000000 0.000000 4.569178 6.178991 6.839240 -4.232283 7.785480 11.544915 -11.784968 -82.942250 -8.122261 0.000000 0.000000 0.000000 3.080879 -4.688614 3.173079 2.781397 8.107997 1.683481 3.407675 -1.952523 1.322414 0.000000 0.000000 0.000000 -2.773141 -1.022414 1.467743 -2.805474 -2.579790 -0.400407 -2.468597 2.150730 -1.459951 0.000000 0.000000 0.000000 
-2552.498047 863.394592 1154.925049 5.157365 3.389030 -1.043438 -0.182967 -1.236739 0.597645 -0.114603 0.145497 -0.130577 -0.121105 -0.268526 0.061095 -0.911901 -1.984602 2.393826 0.000000 0.000000 0.000000 -0.927244 2.599410 -5.089172 -7.028930 4.218837 -10.658026 6.668282 -83.581291 29.236570 0.000000 0.000000 0.000000 4.290688 4.646788 6.118168 -3.810623 6.503689 12.865026 -11.835925 -86.866229 -6.991742 0.000000 0.000000 0.000000 3.133273 -7.439089 2.563023 2.586019 14.247142 3.133843 4.092358 -2.352696 1.563278 0.000000 0.000000 0.000000 -2.833074 -1.015030 1.783874 -2.790231 -1.569605 -0.732806 -2.533130 2.269104 -1.503632 0.000000 0.000000 0.000000 
-2541.414551 862.542419 1157.159058 4.786106 3.459224 -1.025930 -0.104506 -1.057933 0.522721 -0.006307 0.166578 -0.077100 -0.008659 -0.241236 0.055823 -0.982446 -1.763847 2.563789 0.000000 0.000000 0.000000 -0.429819 -0.144732 -4.355728 -8.288836 2.007935 -11.806742 6.234058 -84.869482 31.452885 0.000000 0.000000 0.000000 3.834720 2.977302 5.564618 -3.386094 5.060116 13.679376 -11.817322 -88.865196 -5.995957 0.000000 0.000000 0.000000 3.155520 -10.362621 1.844399 2.479949 20.447738 4.459926 5.114354 -2.265411 1.977617 0.000000 0.000000 0.000000 -2.895152 -0.959813 2.018958 -2.774675 -0.542815 -1.056438 -2.601788 2.288665 -1.534783 0.000000 0.000000 0.000000 
-2530.340576 861.664246 1158.515991 4.329969 3.582470 -1.012807 0.000599 -0.938760 0.607433 0.154565 0.215809 -0.124036 0.160098 -0.233188 0.053755 -1.055471 -1.560452 2.732002 0.000000 0.000000 0.000000 0.395872 -2.487828 -3.845194 -9.035849 0.191488 -12.155162 5.875627 -84.609657 32.392980 0.000000 0.000000 0.000000 3.008119 1.282962 5.426547 -2.988440 3.584078 13.640411 -11.695798 -88.456657 -5.054985 0.000000 0.000000 0.000000 3.235176 -13.788029 1.079734 2.624676 27.191352 5.762335 6.811175 -1.674261 2.693079 0.000000 0.000000 0.000000 -2.928571 -0.930069 2.248087 -2.719457 0.474700 -1.378955 -2.642922 2.094935 -1.522901 0.000000 0.000000 0.000000 
-2519.077148 860.778198 1159.338989 3.938072 3.649442 -0.860816 0.083955 -0.704181 0.543642 0.290941 0.219205 -0.107343 0.307525 -0.217661 0.057454 -1.130079 -1.410796 2.902513 0.000000 0.000000 0.000000 1.391989 -4.550748 -3.404651 -9.421576 -1.366199 -12.172550 5.654891 -83.338164 32.641207 0.000000 0.000000 0.000000 1.956357 -0.372525 5.427605 -2.554050 2.163959 13.258582 -11.462564 -86.518975 -4.230852 0.000000 0.000000 0.000000 3.150688 -17.365177 0.160394 2.857850 33.919124 6.866111 8.986096 -0.392294 3.624437 0.000000 0.000000 0.000000 -2.975824 -0.843849 2.300397 -2.680565 1.513388 -1.673208 -2.696217 1.835002 -1.506471 0.000000 0.000000 0.000000 
-2507.152832 859.969299 1159.800049 3.802804 3.671373 -0.604910 0.086434 -0.278169 0.431578 0.286897 0.127801 -0.043405 0.305920 -0.160009 0.074270 -1.179132 -1.395574 3.008791 0.000000 0.000000 0.000000 2.189718 -6.328812 -3.008917 -9.678602 -2.686872 -12.201471 5.580887 -82.302883 33.025388 0.000000 0.000000 0.000000 1.120111 -1.778767 5.452832 -2.083646 0.999417 13.059568 -11.169943 -84.565871 -3.938627 0.000000 0.000000 0.000000 2.785744 -20.230415 -0.725188 2.914005 38.565651 7.246700 10.467995 0.618498 4.242131 0.000000 0.000000 0.000000 -3.039642 -0.660102 2.173995 -2.692341 2.449495 -1.859907 -2.773812 1.607291 -1.506248 0.000000 0.000000 0.000000 
-2494.280029 859.394226 1159.911011 3.837617 3.727125 -0.378915 0.002090 0.251655 0.550513 0.128399 0.000826 -0.046823 0.138549 -0.035577 0.110405 -1.190831 -1.581227 3.018177 0.000000 0.000000 0.000000 2.722916 -7.802368 -2.810179 -9.808147 -3.753817 -11.956686 5.718072 -81.889552 33.810032 0.000000 0.000000 0.000000 0.698208 -2.949302 5.640060 -1.538566 0.082799 12.936493 -10.836993 -82.854497 -4.659488 0.000000 0.000000 0.000000 2.196563 -22.249203 -1.435152 2.636410 40.695375 6.862408 10.386512 0.418043 4.166916 0.000000 0.000000 0.000000 -3.045185 -0.366066 1.979014 -2.697987 3.147695 -1.897563 -2.817643 1.396658 -1.493911 0.000000 0.000000 0.000000 
-2480.747314 858.896179 1159.659058 3.894937 3.846770 -0.207899 -0.115568 0.748319 0.894382 -0.084627 -0.098246 -0.136917 -0.085284 0.115155 0.166659 -1.183016 -1.908772 2.975707 0.000000 0.000000 0.000000 3.083911 -8.947523 -2.813543 -9.831770 -4.552589 -11.478026 5.989964 -81.819684 34.763276 0.000000 0.000000 0.000000 0.515085 -3.860730 5.990463 -0.951637 -0.594155 12.804493 -10.449076 -81.234883 -5.986248 0.000000 0.000000 0.000000 1.607932 -23.862669 -2.019199 2.254751 41.161179 6.089106 9.412351 -0.653769 3.689748 0.000000 0.000000 0.000000 -2.993217 -0.049293 1.790881 -2.669616 3.737332 -1.855157 -2.819944 1.140987 -1.457219 0.000000 0.000000 0.000000 
-2466.948242 858.085999 1159.178955 3.933771 4.039458 -0.069677 -0.212801 1.064759 1.315381 -0.244594 -0.134321 -0.254042 -0.249195 0.225507 0.226876 -1.172682 -2.269520 2.928710 0.000000 0.000000 0.000000 3.134616 -9.776899 -2.824858 -10.023423 -5.129111 -11.407529 6.164787 -82.280187 36.039244 0.000000 0.000000 0.000000 0.479064 -4.276184 6.240561 -0.430310 -0.862449 13.080911 -10.034029 -80.574979 -7.053581 0.000000 0.000000 0.000000 1.314926 -25.228858 -2.535846 2.110007 40.129597 5.205572 8.469561 -2.063434 3.206767 0.000000 0.000000 0.000000 -2.960071 0.128375 1.677860 -2.632892 4.487624 -1.844199 -2.830051 0.823998 -1.416744 0.000000 0.000000 0.000000 
-2453.032471 856.950989 1158.703003 3.996855 4.319665 0.054691 -0.298156 1.170833 1.766210 -0.343802 -0.123326 -0.371956 -0.345913 0.271166 0.291704 -1.161141 -2.679497 2.885516 0.000000 0.000000 0.000000 2.708006 -10.251909 -2.742103 -10.592645 -5.500457 -12.248572 6.116255 -83.578385 37.914921 0.000000 0.000000 0.000000 0.595063 -3.913414 6.162224 0.026687 -0.492657 14.191519 -9.525283 -81.534001 -7.488157 0.000000 0.000000 0.000000 1.337492 -26.204058 -3.017133 2.208101 36.966958 3.986540 7.509471 -3.622465 2.709711 0.000000 0.000000 0.000000 -2.976908 0.124447 1.630855 -2.609562 5.404690 -1.869330 -2.867905 0.542781 -1.394292 0.000000 0.000000 0.000000 
